<?xml version="1.0" standalone="no"?>
<!DOCTYPE svg PUBLIC "-//W3C//DTD SVG 20010904//EN"
 "http://www.w3.org/TR/2001/REC-SVG-20010904/DTD/svg10.dtd">
<svg version="1.0" xmlns="http://www.w3.org/2000/svg"
 width="512.000000pt" height="506.000000pt" viewBox="0 0 512.000000 506.000000"
 preserveAspectRatio="xMidYMid meet">

<g transform="translate(0.000000,506.000000) scale(0.100000,-0.100000)"
fill="#000000" stroke="none">
<path d="M0 2530 l0 -2530 2543 0 c2452 0 2544 1 2560 18 16 17 17 205 17
2497 l0 2478 -26 34 -25 33 -2535 0 -2534 0 0 -2530z m3253 1905 c225 -39 405
-157 526 -344 64 -100 84 -163 76 -241 -10 -95 -39 -199 -75 -270 -31 -61
-119 -159 -189 -211 l-34 -25 27 -46 27 -46 -65 -32 c-73 -34 -101 -64 -117
-122 -27 -103 28 -209 257 -494 272 -337 368 -497 420 -701 91 -355 -11 -714
-273 -964 -131 -125 -263 -201 -461 -268 -166 -55 -284 -73 -532 -78 l-225 -5
50 54 c28 30 177 182 332 339 l283 284 119 -119 119 -118 11 53 c7 30 52 243
102 474 49 231 92 430 94 443 3 12 2 22 -2 22 -5 0 -136 -27 -293 -61 -157
-33 -374 -79 -482 -102 -109 -23 -198 -44 -198 -47 0 -3 47 -53 105 -112 58
-60 105 -111 105 -116 0 -4 -91 -98 -203 -210 l-202 -202 -155 155 -155 155
-390 -390 -390 -389 -102 43 c-157 67 -369 196 -478 290 l-40 35 71 1 c95 0
210 31 319 85 85 42 164 95 122 81 -10 -3 -69 -9 -130 -12 -353 -20 -654 112
-764 336 -17 35 -31 66 -29 67 1 1 38 -9 81 -23 100 -32 257 -42 360 -22 l70
14 -72 17 c-263 65 -457 231 -513 437 -17 61 -30 179 -23 212 l5 27 57 -38
c235 -160 471 -189 765 -94 60 19 191 69 290 110 389 162 555 205 786 205 79
-1 170 -7 220 -17 148 -27 187 -30 214 -11 28 18 48 77 40 115 -18 82 -67 208
-146 376 -113 238 -161 360 -194 493 -24 96 -26 118 -22 251 4 131 8 156 36
239 38 109 67 164 135 249 135 169 361 275 598 282 26 0 85 -6 132 -14z m942
-846 c94 -58 201 -101 322 -130 169 -39 163 -37 179 -76 36 -84 -49 -149 -238
-183 -174 -32 -492 6 -694 81 l-54 21 55 61 c104 115 160 218 186 343 l13 62
75 -65 c42 -36 112 -87 156 -114z m-684 -2023 c-34 -157 -61 -289 -61 -293 0
-4 -38 31 -85 77 l-86 85 -361 -363 -361 -363 -157 156 -156 156 -208 -211
-207 -210 -92 21 c-51 12 -102 23 -114 26 -13 3 -23 8 -23 12 0 3 145 151 323
329 l322 322 155 -155 155 -155 287 287 c159 159 288 292 288 298 0 5 -32 41
-70 79 -39 38 -67 73 -63 77 12 11 568 126 571 118 2 -4 -24 -136 -57 -293z"/>
<path d="M3324 3971 c-86 -52 -60 -182 39 -198 74 -12 127 33 127 108 0 33 -6
47 -34 75 -40 40 -83 45 -132 15z"/>
</g>
</svg>
